# xmcd
#
# Track frame offsets: 
#        150
#        21825
#        45696
#        66051
#        89217
#        103860
#        124330
#        143061
#        161509
#        179055
#        196929
#        219633
#        237363
#        257942
#
# Disc length: 3760 seconds
#
# Revision: 2
# Processed by: cddbd v1.5.2PL0 Copyright (c) Steve Scherf et al.
# Submitted via: ExactAudioCopy v0.99pb5
#
DISCID=d80eae0e
DTITLE=Graham Foster - With The Major Blues Band
DYEAR=1993
DGENRE=Blues
TTITLE0=Solid Ground
TTITLE1=Count Me Out
TTITLE2=Meanest Man
TTITLE3=Discover Me
TTITLE4=Twilight Zone
TTITLE5=When Love Left Town
TTITLE6=Angeline
TTITLE7=Delta Girl
TTITLE8=Brighttening Up The Blues
TTITLE9=Zero Hour
TTITLE10=The Temptress
TTITLE11=Mind
TTITLE12=Angeline
TTITLE13=As The Years Go Passing By
EXTD=
EXTT0=
EXTT1=
EXTT2=
EXTT3=
EXTT4=
EXTT5=
EXTT6=
EXTT7=
EXTT8=
EXTT9=
EXTT10=
EXTT11=
EXTT12=
EXTT13=
PLAYORDER=
